<?xml version="1.0"?>
<svg width="187" height="155" xmlns="http://www.w3.org/2000/svg" xmlns:svg="http://www.w3.org/2000/svg">
 <!-- Created with SVG-edit - http://svg-edit.googlecode.com/ -->
 <defs>
  <filter id="svg_1_blur">
   <feGaussianBlur stdDeviation="0.3"/>
  </filter>
  <pattern id="gridpattern" patternUnits="userSpaceOnUse" x="0" y="0" width="100" height="100">
   <image id="svg_8" x="0" y="0" width="100" height="100"/>
  </pattern>
  <pattern height="100" width="100" y="0" x="0" patternUnits="userSpaceOnUse" id="gridpattern">
   <image height="100" width="100" y="0" x="0"/>
  </pattern>
 </defs>
 <g>
  <title>Layer 1</title>
  <path stroke="#57d1c9" transform="rotate(117.89045715332031 96.300048828125,91.35599517822264) " id="svg_9" d="m172.247038,142.060362c-28.475211,22.949816 -72.524617,27.623523 -107.399321,11.39635c-34.874704,-16.228204 -51.877662,-49.311055 -41.454797,-80.660974c10.422907,-31.349707 45.671833,-53.148819 85.941188,-53.148819l62.91293,122.413448l0,-0.000005z" stroke-width="5" fill="#57d1c9"/>
  <path id="svg_11" fill="#005689" stroke-width="5" d="m50.120038,110.305399c5.66092,-0.07116 -5.39123,-0.33024 -7.35166,-0.47305c-16.38108,-0.39743 -29.97594,-16.69209 -28.20663,-32.86281c0.35827,-16.18152 15.93595,-30.39621 32.14962,-28.76788c4.22042,-1.7937 10.2115,4.12581 12.83186,1.29844c6.7305,-11.87876 13.25164,-23.88162 20.25334,-35.60236c5.96402,-0.85168 13.06928,-1.51001 18.87103,0.10431c2.68224,4.22721 -2.19446,5.37805 -5.23754,4.72546c-3.39647,0 -6.79294,0 -10.18942,0c-2.45881,4.48814 -4.98192,8.94052 -7.49434,13.39871c14.2705,0 28.54102,0 42.81152,0c0.31778,-1.51876 3.92245,-4.7911 0.72674,-4.4354c-5.80593,-0.73212 -2.1741,-7.44558 2.1254,-5.53574c6.03517,0.22188 12.28368,-0.59523 18.13774,0.61528c3.12716,6.27917 -5.91482,4.93208 -9.79079,4.99864c-2.86896,-0.93686 -3.46351,1.93259 -4.59942,3.89603c-4.60554,4.71994 -1.74291,9.6945 1.35246,14.29567c1.13538,2.09317 1.94422,4.99825 4.70707,3.04243c5.63412,-1.23866 11.77635,-1.28358 17.38261,0.16476c11.71482,3.48214 21.1077,14.34911 21.89409,26.65902c0.7096,7.56122 -0.90603,15.35506 -5.61016,21.45483c-5.4561,7.81878 -14.31067,12.10006 -23.6258,12.96853m-7.30325,0.07632c-8.49233,-2.18037 -16.32205,-7.25293 -20.86139,-14.91107c-2.97063,-3.82784 -3.35682,-9.75447 -4.93576,-13.59425c-4.16438,-0.05451 -8.32877,-0.10903 -12.49316,-0.16354c-8.43447,-13.57529 -15.86874,-27.77281 -24.00479,-41.53734c-1.58594,4.71224 -10.60197,11.12327 -5.62373,15.46096c12.49372,10.48838 14.1575,30.97504 3.47143,43.32443c-4.89718,5.49245 -11.69061,9.27741 -18.67401,11.41694m0.53639,-7.46844c13.47613,-2.93609 22.08765,-18.48216 17.42642,-31.44751c-1.44052,-4.22272 -5.4041,-10.96813 -8.90487,-11.03726c-3.7317,6.44617 -7.0888,13.12314 -11.17865,19.3533c-8.98093,1.58051 -0.7528,-9.3601 1.14751,-13.07778c2.03739,-4.53592 9.43598,-11.87351 0.1157,-11.76487c-6.54316,-0.65145 -13.49674,-0.02147 -18.7899,4.32365c-11.35942,7.52085 -13.5094,24.72265 -4.90698,35.09215c5.82359,7.55435 15.88031,10.76606 25.09077,8.55832l0.00001,-0.00001l-0.00001,0.00001zm94.28735,-0.00187c11.50235,-2.70387 19.77959,-14.53168 18.29074,-26.27058c-0.78743,-13.04578 -13.79132,-23.59649 -26.71947,-21.84303c-9.68763,-0.91731 -0.41285,7.9808 0.97188,12.30662c1.31736,4.59324 8.57444,10.2348 4.52284,14.71418c-9.0873,0.38088 -18.39741,-0.26747 -27.45977,0.64928c1.62767,12.02278 13.00001,21.96821 25.27157,21.0482c1.72215,-0.01405 3.45259,-0.15982 5.12221,-0.60465l-0.00001,0l0.00001,-0.00002zm-37.12356,-26.86879c1.09454,-9.40695 6.42408,-17.96382 14.19675,-23.31794c0.45922,-2.30752 -4.2472,-12.93565 -5.97051,-5.52597c-5.31924,9.6733 -10.66661,19.33363 -15.82286,29.09463c2.47014,0.05978 5.23915,0.4913 7.59662,-0.25071l0,-0.00001zm27.76575,-0.46656c-3.06628,-5.76724 -6.20065,-11.49987 -9.40558,-17.19113c-6.4292,3.39206 -10.6588,10.57056 -11.65861,17.73558c7.01987,-0.14971 14.1575,0.36698 21.08247,-0.37416l-0.01824,-0.1703l0,0l-0.00003,0.00001l-0.00001,0zm-30.07236,-20.80236c3.02413,-5.58425 6.10565,-11.13908 9.03638,-16.77293c-12.74368,-0.28583 -25.51627,-0.34844 -38.25565,0.06041c6.5435,11.25161 12.4552,22.93906 19.60988,33.79521c3.45954,-5.324 6.39775,-11.45352 9.60938,-17.08269l0,-0.00001l0.00001,0.00001z" transform="rotate(-10 92.52998352050773,61.6702041625977) " stroke="#ff895d" filter="url(#svg_1_blur)"/>
  <text id="svg_12" fill="#005689" stroke="#000000" stroke-width="0" x="71.517338" y="142.220729" font-size="24" font-family="Fantasy" text-anchor="middle" xml:space="preserve" font-weight="bold" font-style="normal" transform="rotate(-10 71.65795898437486,132.61759948730466) ">Bici.</text>
  <text id="svg_13" fill="#ff895d" stroke="#000000" stroke-width="0" x="123.517338" y="139.220729" font-size="24" font-family="Fantasy" text-anchor="middle" xml:space="preserve" font-weight="bold" font-style="normal">Tours</text>
 </g>
</svg>